<?xml version="1.0" encoding="UTF-8"?><svg id="Layer_1" xmlns="http://www.w3.org/2000/svg" viewBox="0 0 557.11 551.3"><defs><style>.cls-1{fill:#eec877;}</style></defs><path class="cls-1" d="M0,100.37c4.97-20.52,13.46-38.82,31.31-51.64,13.46-9.67,28.16-15.08,44.83-15.08,60.26,.01,120.52-.12,180.78,0,16.71,.03,28.48,11.29,28.16,26.15-.29,14.02-12.3,25.17-28.17,25.21-57.71,.17-115.43,.06-173.14,.07-23.12,0-32.28,9.11-32.29,32.28-.03,116.28-.02,232.56,0,348.85,0,24.23,9.56,33.72,33.96,33.73,115.85,.02,231.71,.02,347.56,0,23.99,0,33.27-9.15,33.28-32.75,.03-57.29-.1-114.58,.07-171.88,.06-20.84,16.36-33.61,34.2-27.15,10.56,3.82,16.83,11.43,16.85,22.83,.08,63.66,.87,127.33-.5,190.96-.84,39.18-36.78,69.12-80.03,69.23-87,.22-173.99,.07-260.99,.07-30.55,0-61.11,.03-91.66,0-41.39-.06-67.28-18.3-81.48-57.45-.58-1.6-.7-3.27-2.73-3.67V100.37Z"/><path class="cls-1" d="M530.49,142.25c-14.7,0-26.62-11.92-26.62-26.62v-24.73l-199.58,199.58c-10.4,10.4-27.26,10.39-37.65,0s-10.4-27.25,0-37.65L466.22,53.25h-24.74c-14.7,0-26.62-11.92-26.62-26.62,0-14.7,11.92-26.62,26.62-26.62h115.62V115.63c0,14.7-11.92,26.62-26.62,26.62Z"/></svg>